<?xml version="1.0" standalone="no"?>
<!DOCTYPE svg PUBLIC "-//W3C//DTD SVG 20010904//EN"
 "http://www.w3.org/TR/2001/REC-SVG-20010904/DTD/svg10.dtd">
<svg version="1.0" xmlns="http://www.w3.org/2000/svg"
 width="500.000000pt" height="500.000000pt" viewBox="0 0 500.000000 500.000000"
 preserveAspectRatio="xMidYMid meet">

<g transform="translate(0.000000,500.000000) scale(0.100000,-0.100000)"
fill="#000000" stroke="none">
<path d="M0 2500 l0 -2500 2500 0 2500 0 0 2500 0 2500 -2500 0 -2500 0 0
-2500z m3565 2006 c120 -36 200 -77 278 -141 73 -60 154 -173 187 -262 48
-128 50 -151 50 -783 0 -644 -2 -670 -56 -797 -23 -56 -24 -63 -11 -90 59
-115 83 -324 53 -473 -27 -135 -83 -239 -180 -336 -64 -64 -98 -89 -163 -120
-45 -21 -82 -43 -82 -48 -1 -4 105 -232 234 -506 129 -273 235 -500 235 -504
0 -3 -101 -6 -224 -6 l-223 0 -216 478 -215 477 -156 3 -156 3 0 -481 0 -480
-367 2 -368 3 -70 298 -70 297 -350 -2 -349 -3 -71 -295 -70 -295 -208 -3
c-165 -2 -207 0 -207 11 0 7 100 385 223 840 123 455 221 829 219 832 -3 3
-59 5 -124 5 l-118 0 0 1191 0 1190 468 -3 c450 -3 470 -4 557 -27 237 -60
427 -210 493 -386 9 -25 19 -45 22 -45 3 0 15 26 27 58 69 176 221 318 413
382 121 41 186 49 350 46 133 -3 168 -7 245 -30z"/>
<path d="M3153 4162 c-106 -38 -187 -118 -220 -216 -15 -45 -18 -115 -21 -583
l-3 -533 178 0 c271 0 393 -14 561 -65 l22 -7 0 563 c0 587 -1 604 -43 686
-25 47 -95 110 -155 140 -50 24 -71 28 -162 31 -82 2 -116 -2 -157 -16z"/>
<path d="M1402 3788 l3 -373 190 -3 c105 -2 219 2 255 8 178 30 288 151 298
331 12 201 -86 348 -260 395 -38 10 -116 14 -271 14 l-217 0 2 -372z"/>
<path d="M2465 3417 c-45 -81 -149 -175 -253 -230 l-90 -47 160 -338 c88 -185
175 -368 193 -407 l33 -70 -5 570 c-3 314 -6 571 -7 572 -1 1 -15 -21 -31 -50z"/>
<path d="M1400 2923 c0 -94 4 -153 9 -148 5 6 11 19 13 30 3 19 13 20 205 25
l201 5 -55 123 -56 122 -158 0 -159 0 0 -157z"/>
<path d="M1668 2432 c-9 -64 -66 -326 -127 -582 -61 -255 -111 -468 -111 -472
0 -4 119 -8 265 -8 146 0 265 4 265 8 0 4 -49 217 -110 472 -60 256 -118 518
-127 583 -10 64 -22 117 -28 117 -5 0 -18 -53 -27 -118z"/>
<path d="M3176 2470 c24 -9 111 -15 174 -11 42 3 43 4 15 11 -42 11 -216 11
-189 0z"/>
<path d="M2920 1946 l0 -216 210 0 c163 0 226 4 277 16 159 40 253 170 253
347 0 62 -2 68 -17 62 -50 -21 -193 -54 -261 -60 -121 -11 -349 20 -444 60
-17 7 -18 -7 -18 -209z"/>
<path d="M2174 2103 c28 -114 328 -1249 332 -1252 2 -3 3 283 2 635 l-3 639
-169 3 -168 2 6 -27z"/>
</g>
</svg>
