<?xml version="1.0" encoding="UTF-8" standalone="no"?>
<!-- Created with Inkscape (http://www.inkscape.org/) -->

<svg
   width="141.29778mm"
   height="125.8538mm"
   viewBox="0 0 141.29778 125.8538"
   version="1.1"
   id="svg1"
   xml:space="preserve"
   inkscape:version="1.3.2 (091e20e, 2023-11-25, custom)"
   sodipodi:docname="smug.svg"
   xmlns:inkscape="http://www.inkscape.org/namespaces/inkscape"
   xmlns:sodipodi="http://sodipodi.sourceforge.net/DTD/sodipodi-0.dtd"
   xmlns:xlink="http://www.w3.org/1999/xlink"
   xmlns="http://www.w3.org/2000/svg"
   xmlns:svg="http://www.w3.org/2000/svg"><sodipodi:namedview
     id="namedview1"
     pagecolor="#ffffff"
     bordercolor="#000000"
     borderopacity="0.25"
     inkscape:showpageshadow="2"
     inkscape:pageopacity="0.0"
     inkscape:pagecheckerboard="0"
     inkscape:deskcolor="#d1d1d1"
     inkscape:document-units="mm"
     inkscape:zoom="0.51213161"
     inkscape:cx="207.95436"
     inkscape:cy="690.25226"
     inkscape:window-width="1920"
     inkscape:window-height="1009"
     inkscape:window-x="-8"
     inkscape:window-y="-8"
     inkscape:window-maximized="1"
     inkscape:current-layer="layer1" /><defs
     id="defs1"><pattern
       inkscape:collect="always"
       xlink:href="#WireFence"
       preserveAspectRatio="xMidYMid"
       id="pattern80"
       patternTransform="matrix(0.31317626,0,0,0.293334,-5.1182793,4.9091046)" /><pattern
       patternUnits="userSpaceOnUse"
       width="52"
       height="61.14"
       id="WireFence"
       patternTransform="scale(0.3,0.3)"
       preserveAspectRatio="xMidYMid"
       style="fill:#000000"
       inkscape:label="Wire Fence"
       inkscape:collect="always"
       inkscape:isstock="true"><path
         id="rect9"
         style="stroke:none"
         d="m 31.437499,0 7.257813,7.2578126 c -0.879538,1.3312883 -0.879117,3.0161644 10e-7,4.3476564 L 26.072266,24.228516 14,36.300782 0,22.302735 v 2.828124 l 12.640625,12.640625 c -0.89873,1.34129 -0.898729,3.115742 0,4.457031 L 0,54.86914 v 2.828126 l 14,-14 17.443359,17.443359 2.828125,10e-7 -18.912109,-18.91211 c 0.898055,-1.340861 0.898042,-3.116186 0,-4.457031 L 27.488281,25.642578 40,13.128906 l 12.000001,12 L 52,22.300781 41.302734,11.605469 c 0.879644,-1.331587 0.879713,-3.0161029 0,-4.3476564 L 48.560547,0 H 45.732422 L 40,5.732422 34.267578,0 Z M 52,54.869141 l -6.271484,6.271484 2.828124,0 L 52,57.697265 Z" /></pattern></defs><g
     inkscape:label="Layer 1"
     inkscape:groupmode="layer"
     id="layer1"
     style="display:inline"
     transform="translate(-33.445626,-86.981565)"><rect
       style="display:inline;fill:url(#pattern80);fill-opacity:1;stroke:#000000;stroke-width:0.534623;stroke-linecap:round;stroke-linejoin:round;stroke-dasharray:none;stroke-dashoffset:0;stroke-opacity:1"
       id="rect42"
       width="140.76315"
       height="125.27769"
       x="33.712936"
       y="87.248878"
       inkscape:export-filename="..\..\Desktop\smug-exoprt.svg"
       inkscape:export-xdpi="107.77267"
       inkscape:export-ydpi="107.77267" /><path
       id="path43"
       style="display:inline;fill:#363340;fill-opacity:1;stroke:#000000;stroke-width:1;stroke-linecap:round;stroke-linejoin:round;stroke-dasharray:none;stroke-dashoffset:0;stroke-opacity:1"
       d="m 130.06286,195.65679 c -8.14967,3.19579 -16.99782,4.68469 -25.2181,4.90048 -10.100511,-0.004 -18.728088,-1.26149 -26.065073,-3.5109 a 31.018143,33.392681 0 0 0 -4.776452,15.28899 h 61.752815 a 31.018143,33.392681 0 0 0 -5.69319,-16.67857 z" /><g
       id="g38"
       inkscape:label="face"
       style="display:inline"><path
         style="display:inline;fill:#3d342b;fill-opacity:1;stroke:#000000;stroke-width:1.85208;stroke-linecap:round;stroke-dasharray:none;stroke-opacity:1"
         d="m 100.46125,92.789668 c 46.40677,1.320479 54.08568,26.543132 59.18081,53.335792 3.65758,40.3122 -28.73362,53.74754 -54.79704,54.43173 C 59.441218,200.54063 43.63115,175.30594 42.376383,147.58671 41.854675,116.43118 69.504959,90.974371 100.46125,92.789668 Z"
         id="path42"
         sodipodi:nodetypes="ccccc"
         inkscape:label="rambut" /><path
         id="path4"
         style="display:inline;fill:#f4d3af;fill-opacity:1;stroke:#000000;stroke-width:1.85208;stroke-linecap:round;stroke-dasharray:none;stroke-opacity:1"
         d="m 116.29781,118.79637 -0.97668,2.4939 -23.954614,1.95699 -1.231449,-1.39888 -1.024744,1.58336 -15.587679,1.27331 -1.009757,-0.83819 -0.834058,0.98908 -8.391219,0.68575 c 4.805209,20.13172 -4.60665,17.26288 -8.266162,18.0821 -0.502256,9.83323 1.522123,18.59145 -9.923426,20.17965 l -0.201538,-0.44235 c 6.043927,20.8311 23.406788,37.18285 59.948276,37.19618 24.53651,-0.64411 54.67035,-12.59756 55.06641,-47.62914 l -0.0139,-0.005 c -8.12382,3.10887 -7.3203,-6.70902 -8.00778,-16.27395 -2.8979,0.23532 -17.98836,4.87523 -17.04857,-16.7907 l -16.61398,1.10019 z"
         inkscape:label="muka" /><path
         id="path5"
         style="fill:none;fill-opacity:0.152893;stroke:#000000;stroke-width:2.64583;stroke-linecap:round;stroke-dasharray:none;stroke-opacity:1"
         d="m 123.84205,159.24816 c -2.30874,-0.0139 -4.72983,0.21312 -7.36802,0.75706 l 20.09024,1.42472 c -4.31667,-1.25064 -8.31461,-2.15518 -12.72222,-2.18178 z m -35.680506,0.92811 c -6.226421,0.0294 -11.420032,0.73745 -17.65577,2.02313 l 22.156787,-1.93373 c -1.572372,-0.0667 -3.064151,-0.0962 -4.501017,-0.0894 z"
         inkscape:label="mata" /><path
         style="fill:none;fill-opacity:0.152893;stroke:#000000;stroke-width:1.32292;stroke-linecap:round;stroke-dasharray:none;stroke-opacity:1"
         d="m 84.696896,144.56177 c 0.0032,-7.61005 5.551322,-10.14365 7.361676,-0.83762 m 3.288292,5.32382"
         id="path5-7"
         sodipodi:nodetypes="cc"
         inkscape:label="alis" /><path
         style="fill:none;fill-opacity:0.152893;stroke:#000000;stroke-width:1.32292;stroke-linecap:round;stroke-dasharray:none;stroke-opacity:1"
         d="m 114.38131,144.3728 c 0.003,-7.61005 4.93485,-11.23959 8.11513,-1.56825"
         id="path5-7-6"
         sodipodi:nodetypes="cc"
         inkscape:label="alis2" /><path
         style="display:inline;fill:none;fill-opacity:0.152893;stroke:#000000;stroke-width:1.32292;stroke-linecap:round;stroke-linejoin:miter;stroke-dasharray:none;stroke-opacity:1"
         d="m 90.539672,179.33572 c 2.971641,5.30895 11.024788,4.31104 14.069898,0.11548 0.70183,-0.96699 0.71273,-0.96958 1.3046,-0.008 2.63957,4.28798 11.01528,4.47944 13.36313,-0.88235"
         id="path6"
         sodipodi:nodetypes="cssc"
         inkscape:label="mulut" /><path
         id="path8"
         style="fill:none;fill-opacity:0.152893;stroke:#000000;stroke-width:0.529167;stroke-linecap:round;stroke-linejoin:round;stroke-dasharray:none;stroke-opacity:1"
         d="m 112.26343,192.10145 0.25838,7.49154 z m -3.24269,0.23306 c 0.0127,0.31637 0.0474,0.62555 0.0961,0.9307 z m 0.0961,0.9307 0.67903,6.57634 c 0.66697,-2.58451 -0.34444,-4.48044 -0.67903,-6.57634 z m -2.09858,-0.84801 c 0.17038,2.4943 -0.12399,5.05467 0.54881,7.39438 z m -9.048539,0.35088 c -0.621209,2.70538 -0.770807,5.19934 -0.145211,7.3458 z m 1.844848,0.0522 -0.04858,7.136 c 0.0775,-1.82642 0.140464,-3.78504 0.04858,-7.136 z m 4.974891,0.18345 0.17725,6.9262 c 0.35747,-2.30681 0.0371,-4.49795 -0.17725,-6.9262 z m -2.20503,0.80357 c -0.39738,2.42252 -0.34198,4.7092 -0.32298,7.00681 z"
         inkscape:label="jenggot" /><path
         id="path8-8-55-4-3"
         style="display:inline;fill:#33261a;fill-opacity:0.152893;stroke:#000000;stroke-width:0.529167;stroke-linecap:round;stroke-linejoin:round;stroke-dasharray:none;stroke-opacity:1"
         inkscape:label="kumis"
         d="m 110.31936,170.95597 1.40095,2.43706 c -0.0982,-1.15362 -0.69407,-1.3443 -1.40095,-2.43706 z m 2.00195,0.23358 1.01286,2.55127 c -0.0982,-1.15363 -0.30598,-1.45851 -1.01286,-2.55127 z m 2.34869,0.54674 0.89866,2.48253 c -0.0982,-1.15363 -0.19178,-1.38977 -0.89866,-2.48253 z m -16.809823,0.64079 c -0.706878,1.09274 -1.30275,1.28343 -1.400948,2.43706 z m 18.835543,0.13539 0.71572,2.18591 c -0.0982,-1.15363 -0.009,-1.09315 -0.71572,-2.18591 z m -20.836972,0.0982 c -0.706876,1.09276 -0.914658,1.39712 -1.012858,2.55075 z m -2.34921,0.54622 c -0.706878,1.09276 -0.800453,1.32891 -0.898653,2.48254 z m 24.946802,0.0217 0.58342,1.5844 c -0.14679,-0.45974 -0.19308,-0.74181 -0.58342,-1.5844 z m 0.58342,1.5844 c 0.0578,0.18095 0.13018,0.38872 0.2465,0.67024 z m -27.555422,-0.82941 c -0.706898,1.09276 -0.618035,1.03177 -0.716235,2.1854 z m 28.472162,0.0522 0.56638,1.29708 c -0.11501,-0.36683 -0.24348,-0.75903 -0.56638,-1.29708 z m 0.56638,1.29708 c 0.12243,0.39052 0.22962,0.75255 0.53795,1.23145 z M 89.723722,174.5997 c -0.389884,0.84159 -0.436529,1.12355 -0.58291,1.58233 z m -0.58291,1.58233 -0.24753,0.67179 c 0.11667,-0.28235 0.189677,-0.49047 0.24753,-0.67179 z m 32.824358,-1.1777 c 0.3003,1.31184 0.67106,1.56698 1.05574,2.41845 z m -33.741614,0.40255 c -0.324404,0.54056 -0.453029,0.93343 -0.568441,1.30173 z m -0.568441,1.30173 -0.535885,1.22629 c 0.306982,-0.47681 0.414123,-0.83772 0.535885,-1.22629 z m 36.562105,-0.66456 0.95085,1.9911 c -0.31267,-0.71386 -0.37721,-1.10432 -0.95085,-1.9911 z m -38.002327,0.38086 -1.066602,2.44223 c 0.388546,-0.87087 0.763485,-1.1181 1.066602,-2.44223 z m -2.252059,1.03973 c -0.574338,0.88787 -0.638729,1.27814 -0.952397,1.99368 z m 41.206266,0.57309 c 0.0724,0.16512 0.15782,0.34719 0.26614,0.55707 z m -42.161764,1.4273 -0.263033,0.55088 c 0.10689,-0.20713 0.191254,-0.38747 0.263033,-0.55088 z" /></g><path
       id="path38-6"
       style="display:inline;fill:#f3d2ae;fill-opacity:1;stroke:#000000;stroke-width:1;stroke-linecap:round;stroke-linejoin:round;stroke-dasharray:none;stroke-dashoffset:0;stroke-opacity:1"
       d="m 123.08866,195.12567 c -7.38399,-0.0211 -14.27602,2.79243 -20.98373,5.43171 -4.427202,-0.6434 -8.387239,-1.03009 -11.598258,-1.00459 1.301037,1.97575 1.630647,4.08228 7.214547,5.47926 -0.35378,1.8884 -0.93104,4.93478 -1.02216,7.41246 H 119.477 c 0.26232,-3.56266 -0.72061,-6.45217 -3.21583,-9.23871 l 10.31979,-3.28765 c 1.87236,-0.96721 2.1349,-4.70888 -2.00918,-4.74958 -0.49674,-0.0275 -0.99085,-0.0415 -1.48312,-0.0429 z"
       transform="translate(-2.650019,-0.10915387)" /><path
       style="display:inline;fill:#f3d2ae;fill-opacity:1;stroke:#000000;stroke-width:1.00013;stroke-linecap:round;stroke-linejoin:round;stroke-dasharray:none;stroke-dashoffset:0;stroke-opacity:1"
       d="m 115.89576,203.34271 -2.76269,0.89046"
       id="path39-8"
       sodipodi:nodetypes="cc"
       inkscape:label="path39-8"
       transform="translate(-2.650019,-0.10915387)" /></g></svg>
